<mxfile host="app.diagrams.net" modified="2023-05-23T17:47:23.680Z" agent="Mozilla/5.0 (X11; Ubuntu; Linux x86_64; rv:109.0) Gecko/20100101 Firefox/113.0" version="21.3.2" etag="hxxaMlt9rXmxrWiTN681" type="github">
  <diagram name="Page-1" id="xYGsk0fWXddtRG2SCBWW">
    <mxGraphModel>
      <root>
        <mxCell id="0" />
        <mxCell id="1" parent="0" />
      </root>
    </mxGraphModel>
  </diagram>
</mxfile>
